<svg width="20" height="20" viewBox="0 0 20 20" fill="none" xmlns="http://www.w3.org/2000/svg">
<g id="Frame">
<path id="Vector" d="M16.6668 8.33366C16.6668 12.0153 10.0002 18.3337 10.0002 18.3337C10.0002 18.3337 3.3335 12.0153 3.3335 8.33366C3.3335 6.56555 4.03588 4.86986 5.28612 3.61961C6.53636 2.36937 8.23205 1.66699 10.0002 1.66699C11.7683 1.66699 13.464 2.36937 14.7142 3.61961C15.9645 4.86986 16.6668 6.56555 16.6668 8.33366Z" stroke="black" stroke-width="1.5"/>
<path id="Vector_2" d="M9.99984 9.16667C10.2209 9.16667 10.4328 9.07887 10.5891 8.92259C10.7454 8.76631 10.8332 8.55435 10.8332 8.33333C10.8332 8.11232 10.7454 7.90036 10.5891 7.74408C10.4328 7.5878 10.2209 7.5 9.99984 7.5C9.77882 7.5 9.56686 7.5878 9.41058 7.74408C9.2543 7.90036 9.1665 8.11232 9.1665 8.33333C9.1665 8.55435 9.2543 8.76631 9.41058 8.92259C9.56686 9.07887 9.77882 9.16667 9.99984 9.16667Z" fill="black" stroke="black" stroke-width="1.5" stroke-linecap="round" stroke-linejoin="round"/>
</g>
</svg>
